<svg width="512" height="384" viewBox="0 0 512 384" fill="none" xmlns="http://www.w3.org/2000/svg">
  <rect width="512" height="384" fill="#F8F8FA"/>
  <g transform="translate(62 135)">
    <path d="M25 0L51 14L51 42L25 56L0 42L0 14L25 0Z" fill="#7A1DB8"/>
    <path d="M78 0L104 14L104 42L78 56L53 42L53 14L78 0Z" fill="#6A17B2"/>
    <path d="M52 46L78 60L78 88L52 102L27 88L27 60L52 46Z" fill="#8B22C7"/>
    <path d="M0 60L25 46L51 60L51 88L25 102L0 88L0 60Z" fill="#5C10A5"/>
  </g>
  <text x="168" y="210" fill="#7A1DB8" font-family="Arial, Helvetica, sans-serif" font-size="88" font-weight="700" letter-spacing="-2">wayfair</text>
  <circle cx="430" cy="142" r="7" fill="#7A1DB8"/>
</svg>
